<?xml version="1.0" encoding="UTF-8"?> <svg xmlns="http://www.w3.org/2000/svg" xmlns:xlink="http://www.w3.org/1999/xlink" id="Layer_1" width="120" height="105" viewBox="0 0 120 105"><defs><linearGradient id="linear-gradient" x1="116.96" y1="41.04" x2="38.51" y2="60.41" gradientUnits="userSpaceOnUse"><stop offset="0" stop-color="#ab73b0"></stop><stop offset=".11" stop-color="#b87899"></stop><stop offset=".35" stop-color="#db865e"></stop><stop offset=".48" stop-color="#f29039"></stop><stop offset="1" stop-color="#ffce60"></stop></linearGradient><linearGradient id="linear-gradient-2" x1="65.4" y1="76.7" x2="108.63" y2="38.46" gradientUnits="userSpaceOnUse"><stop offset=".26" stop-color="#4454a4"></stop><stop offset=".75" stop-color="#8173b2"></stop></linearGradient></defs><circle cx="84.57" cy="49.04" r="31.12" style="fill:url(#linear-gradient); stroke-width:0px;"></circle><polygon points="55.04 55.74 85.63 35.78 115.21 51.81 113.35 59.21 109.67 66.6 103.19 73.38 97.65 76.77 85.01 79.68 77.61 77.7 69.29 75.54 63.28 71.38 59.73 65.68 56.34 60.7 55.04 55.74" style="fill:url(#linear-gradient-2); stroke-width:0px;"></polygon><path d="M0,103.63l.84-2.74c1.05.76,2.42,1.26,3.64,1.26,1.07,0,1.48-.5,1.48-1.14,0-.68-.34-1.14-2.33-1.94-2.29-.92-3.09-2.26-3.09-3.82,0-1.9,1.55-3.75,4.59-3.75,1.42,0,2.88.5,3.64,1.01l-.76,2.7c-.75-.52-1.96-1.07-2.88-1.07-1.1,0-1.55.52-1.55,1.05,0,.85.66,1.14,2.29,1.83,2.44,1.03,3.16,2.2,3.16,3.88,0,2.08-1.51,4.05-4.64,4.05-1.48,0-3.25-.59-4.39-1.33Z" style="fill:#181415; stroke-width:0px;"></path><path d="M16.32,99.57l-4.59-7.86h3.47l2.67,5,2.67-5h3.4l-4.59,7.88v5.16h-3.02v-5.17Z" style="fill:#181415; stroke-width:0px;"></path><path d="M38.23,104.75l-.16-6.4-3.61,4.57h-.32l-3.64-4.57-.12,6.4h-2.92l.6-13.12.41-.04,5.9,7.45,5.76-7.45.41.04.62,13.12h-2.93Z" style="fill:#181415; stroke-width:0px;"></path><path d="M45.93,91.84c1.33-.14,2.54-.21,3.63-.21,3.77,0,5.8,2.01,5.8,4.64s-1.83,4.62-5.28,4.62c-.43,0-.71-.02-1.12-.04v3.89h-3.02v-12.91ZM52.26,96.32c0-1.05-.69-1.87-2.19-1.87-.39,0-.66.02-1.12.07v3.72c.43.02.62.04.91.04,1.6,0,2.4-.69,2.4-1.96Z" style="fill:#181415; stroke-width:0px;"></path><path d="M59.51,91.72h3.02v5.1h5.01v-5.1h3.02v13.03h-3.02v-5.23h-5.01v5.23h-3.02v-13.03Z" style="fill:#181415; stroke-width:0px;"></path><path d="M75.07,98.24c0-3.84,2.7-6.74,6.74-6.74s6.61,2.9,6.61,6.74-2.72,6.72-6.74,6.72-6.61-2.9-6.61-6.72ZM85.19,98.24c0-2.35-1.39-4.04-3.45-4.04s-3.45,1.69-3.45,4.04,1.39,4.04,3.45,4.04,3.45-1.71,3.45-4.04Z" style="fill:#181415; stroke-width:0px;"></path><path d="M103.8,105l-7.86-7.06v6.81h-3.02v-13.21l.41-.07,7.75,7v-6.76h3.02v13.23l-.3.05Z" style="fill:#181415; stroke-width:0px;"></path><path d="M112.39,99.57l-4.59-7.86h3.47l2.67,5,2.67-5h3.4l-4.59,7.88v5.16h-3.02v-5.17Z" style="fill:#181415; stroke-width:0px;"></path><path d="M107.77,25.67c-6.12-6.02-14.38-9.33-23.25-9.33s-17.13,3.31-23.25,9.33c-6.22,6.11-9.65,14.48-9.65,23.57,0,2,.17,3.99.5,5.94-4.05,3.08-9,5-14.33,5.55-7.62.78-14.89-1.32-20.47-5.91-5.59-4.6-9.11-11.4-9.91-19.15-.79-7.74,1.22-15.11,5.68-20.75,4.44-5.62,10.98-9.13,18.43-9.9,8.41-.86,16.21,1.87,21.96,7.71l.75.77,3.66-3.38-.82-.82C50.12,2.41,40.87-.83,31.03.18c-8.8.9-16.57,5.01-21.88,11.56-5.37,6.63-7.83,15.31-6.94,24.46.88,9.02,5,16.96,11.59,22.35,5.77,4.72,12.95,7.22,20.76,7.22,1.23,0,2.49-.06,3.74-.19,5.46-.56,10.67-2.4,15.11-5.33,1.63,4.81,4.27,9.03,7.86,12.56,6.12,6.02,14.38,9.33,23.25,9.33s17.13-3.31,23.25-9.33c6.22-6.11,9.65-14.48,9.65-23.57s-3.43-17.46-9.65-23.57ZM112.17,48.58l-26.61-15.31-28.59,18.77c-.08-.92-.12-1.86-.12-2.78,0-7.78,2.81-14.91,7.9-20.06,5.08-5.14,12.1-7.97,19.76-7.97s14.68,2.83,19.76,7.97c4.94,5,7.73,11.85,7.89,19.39ZM111.85,53.84c-.89,6.01-3.5,11.36-7.57,15.47-5.08,5.14-12.1,7.97-19.76,7.97s-14.68-2.83-19.76-7.97c-3.28-3.31-5.66-7.53-6.9-12.2l27.87-18.29,26.12,15.03Z" style="fill:#181415; stroke-width:0px;"></path></svg> 